<svg id="Layer_1" data-name="Layer 1" xmlns="http://www.w3.org/2000/svg" xmlns:xlink="http://www.w3.org/1999/xlink" viewBox="0 0 499.45 354.45"><defs><style>.cls-1,.cls-12,.cls-17,.cls-18,.cls-19,.cls-20,.cls-27,.cls-31,.cls-32,.cls-33,.cls-35,.cls-39,.cls-42,.cls-43,.cls-45,.cls-46,.cls-47{fill:none;}.cls-2,.cls-4{font-size:12px;}.cls-11,.cls-2,.cls-28,.cls-29,.cls-34,.cls-36,.cls-4,.cls-50,.cls-8{fill:#231f20;}.cls-2,.cls-36,.cls-4,.cls-50{font-family:Arial-BoldMT, Arial;}.cls-2,.cls-36,.cls-5,.cls-6{font-weight:700;}.cls-3,.cls-6{font-family:Consolas-Bold, Consolas;}.cls-11,.cls-36,.cls-7{font-size:10px;}.cls-11,.cls-13,.cls-25,.cls-26,.cls-29,.cls-34,.cls-40,.cls-49,.cls-51,.cls-56,.cls-7,.cls-8{font-family:ArialMT, Arial;}.cls-13,.cls-40,.cls-56,.cls-8{font-size:8px;}.cls-9{letter-spacing:-0.02em;}.cls-10,.cls-57{font-family:Arial-ItalicMT, Arial;font-style:italic;}.cls-12,.cls-15,.cls-16,.cls-23,.cls-24,.cls-27,.cls-31,.cls-32,.cls-33,.cls-35,.cls-37,.cls-38,.cls-46,.cls-47{stroke:#231f20;}.cls-12,.cls-15,.cls-16,.cls-17,.cls-18,.cls-19,.cls-20,.cls-21,.cls-22,.cls-23,.cls-24,.cls-27,.cls-31,.cls-32,.cls-33,.cls-35,.cls-37,.cls-38,.cls-39,.cls-42,.cls-43,.cls-45,.cls-46,.cls-47,.cls-55{stroke-miterlimit:10;}.cls-12,.cls-15,.cls-16,.cls-37,.cls-38{stroke-width:0.25px;}.cls-13{fill:#60c3ac;}.cls-14{fill:#7b599c;}.cls-15{fill:url(#radial-gradient);}.cls-16{fill:url(#radial-gradient-2);}.cls-17,.cls-20,.cls-21{stroke:#60c3ac;}.cls-17,.cls-18,.cls-21,.cls-22,.cls-35{stroke-width:0.75px;stroke-dasharray:1;}.cls-18,.cls-19,.cls-22{stroke:#7b599c;}.cls-21,.cls-22{fill:#6d6e71;}.cls-23{fill:#939598;}.cls-23,.cls-24,.cls-31,.cls-32,.cls-33,.cls-43,.cls-45,.cls-46,.cls-47,.cls-55{stroke-width:0.5px;}.cls-24,.cls-26{fill:#414042;}.cls-25,.cls-26,.cls-34{font-size:7px;}.cls-25{fill:#808285;}.cls-29,.cls-49{font-size:6px;}.cls-30{fill:#fff37a;}.cls-32{stroke-dasharray:0.94 0.94;}.cls-33{stroke-dasharray:1.24 1.24;}.cls-37{fill:url(#radial-gradient-3);}.cls-38{fill:url(#radial-gradient-4);}.cls-39,.cls-43{stroke:#ba131a;}.cls-40,.cls-44,.cls-49{fill:#ba131a;}.cls-41,.cls-56{fill:#4c6ab2;}.cls-42,.cls-45{stroke:#4c6ab2;}.cls-46{stroke-dasharray:0.94 0.94;}.cls-47{stroke-dasharray:1.24 1.24;}.cls-48{letter-spacing:-0.06em;}.cls-52{clip-path:url(#clip-path);}.cls-53{font-size:9.96px;font-family:CMR10, CM R 10;}.cls-54{clip-path:url(#clip-path-2);}.cls-55{fill:#fff;stroke:#939598;}.cls-57{letter-spacing:-0.04em;}</style><radialGradient id="radial-gradient" cx="32.52" cy="40.42" r="3.14" gradientUnits="userSpaceOnUse"><stop offset="0" stop-color="#fff"/><stop offset="1" stop-color="#7b599c"/></radialGradient><radialGradient id="radial-gradient-2" cx="32.52" cy="30.54" r="3.14" gradientUnits="userSpaceOnUse"><stop offset="0" stop-color="#fff"/><stop offset="1" stop-color="#60c3ac"/></radialGradient><radialGradient id="radial-gradient-3" cx="32.52" cy="231.77" r="3.14" xlink:href="#radial-gradient"/><radialGradient id="radial-gradient-4" cx="32.52" cy="221.89" r="3.14" xlink:href="#radial-gradient-2"/><clipPath id="clip-path"><rect class="cls-1" x="342.42" y="239.52" width="18.94" height="7.96"/></clipPath><clipPath id="clip-path-2"><rect class="cls-1" x="410.82" y="242.52" width="7" height="3.96"/></clipPath></defs><title>outrigger_overview</title><text class="cls-2" transform="translate(0 10.29)">1. <tspan class="cls-3" x="13.34" y="0">outrigger index</tspan></text><text class="cls-4" transform="translate(0 127.54)"><tspan class="cls-5">2. </tspan><tspan class="cls-6" x="13.34" y="0">outrigger validate</tspan><tspan class="cls-7" x="132.1" y="0" xml:space="preserve"> (optional)</tspan></text><text class="cls-2" transform="translate(0 198.45)">3. <tspan class="cls-3" x="13.34" y="0">outrigger psi</tspan></text><text class="cls-8" transform="translate(203.34 246.77)">Reject cases with <tspan x="0" y="9.6">insu</tspan><tspan class="cls-9" x="14.68" y="9.6">f</tspan><tspan x="16.75" y="9.6">ficient junction reads</tspan></text><text class="cls-8" transform="translate(224.78 31.78)">Detect exons<tspan class="cls-10"><tspan x="0" y="9.6">de novo</tspan></tspan></text><text class="cls-11" transform="translate(5.44 22.67)">Input: Junction reads from data</text><rect class="cls-12" x="3.97" y="13.42" width="161.78" height="42.05"/><text class="cls-13" transform="translate(6.3 33.4)">Cell 1<tspan class="cls-14"><tspan x="0" y="9.6">Cell 2</tspan></tspan></text><circle class="cls-15" cx="32.52" cy="40.42" r="3.14"/><circle class="cls-16" cx="32.52" cy="30.54" r="3.14"/><line class="cls-17" x1="92.9" y1="27.97" x2="100.01" y2="27.97"/><line class="cls-18" x1="126.18" y1="27.97" x2="133.29" y2="27.97"/><line class="cls-17" x1="92.62" y1="31.58" x2="99.73" y2="31.58"/><line class="cls-18" x1="92.92" y1="38.69" x2="116.16" y2="38.69"/><line class="cls-18" x1="92.97" y1="35.18" x2="116.21" y2="35.18"/><line class="cls-18" x1="126.18" y1="31.58" x2="133.29" y2="31.58"/><line class="cls-17" x1="111.15" y1="46.01" x2="134.39" y2="46.01"/><line class="cls-17" x1="111.23" y1="42.4" x2="134.47" y2="42.4"/><line class="cls-19" x1="133.23" y1="27.98" x2="140.34" y2="27.98"/><line class="cls-19" x1="119.16" y1="27.98" x2="126.26" y2="27.98"/><line class="cls-19" x1="133.28" y1="31.58" x2="142.58" y2="31.58"/><line class="cls-19" x1="121.53" y1="31.58" x2="126.39" y2="31.58"/><line class="cls-20" x1="134.55" y1="42.4" x2="143.84" y2="42.4"/><line class="cls-20" x1="134.39" y1="46.01" x2="141.4" y2="46.01"/><line class="cls-20" x1="106.7" y1="42.4" x2="111.24" y2="42.4"/><line class="cls-20" x1="104.06" y1="46.01" x2="111.15" y2="46.01"/><line class="cls-20" x1="99.94" y1="27.97" x2="104.88" y2="27.97"/><line class="cls-20" x1="99.94" y1="31.58" x2="106.73" y2="31.58"/><line class="cls-20" x1="85.69" y1="31.58" x2="92.62" y2="31.58"/><line class="cls-20" x1="83.54" y1="27.97" x2="92.83" y2="27.97"/><line class="cls-19" x1="92.93" y1="35.18" x2="85.82" y2="35.18"/><line class="cls-19" x1="92.83" y1="38.69" x2="83.54" y2="38.69"/><line class="cls-19" x1="116.1" y1="35.18" x2="123.2" y2="35.18"/><line class="cls-19" x1="116.1" y1="38.69" x2="120.95" y2="38.69"/><line class="cls-21" x1="48.54" y1="31.7" x2="55.65" y2="31.7"/><line class="cls-20" x1="62.68" y1="31.7" x2="55.68" y2="31.7"/><line class="cls-20" x1="48.64" y1="31.7" x2="41.64" y2="31.7"/><line class="cls-17" x1="64.67" y1="28.1" x2="71.78" y2="28.1"/><line class="cls-20" x1="64.66" y1="28.1" x2="57.66" y2="28.1"/><line class="cls-20" x1="78.7" y1="28.1" x2="71.7" y2="28.1"/><line class="cls-22" x1="48.53" y1="35.3" x2="71.77" y2="35.3"/><line class="cls-22" x1="48.53" y1="38.86" x2="71.77" y2="38.86"/><line class="cls-19" x1="48.63" y1="35.3" x2="39.55" y2="35.3"/><line class="cls-19" x1="76.23" y1="35.3" x2="71.69" y2="35.3"/><line class="cls-19" x1="80.77" y1="38.86" x2="71.69" y2="38.86"/><line class="cls-19" x1="48.63" y1="38.86" x2="44.09" y2="38.86"/><line class="cls-21" x1="48.98" y1="42.46" x2="72.22" y2="42.46"/><line class="cls-21" x1="48.98" y1="46.02" x2="72.22" y2="46.02"/><line class="cls-20" x1="49.08" y1="42.46" x2="39.99" y2="42.46"/><line class="cls-20" x1="76.68" y1="42.46" x2="72.13" y2="42.46"/><line class="cls-20" x1="81.22" y1="46.02" x2="72.13" y2="46.02"/><line class="cls-20" x1="49.08" y1="46.02" x2="44.53" y2="46.02"/><line class="cls-18" x1="145.74" y1="35.47" x2="152.85" y2="35.47"/><line class="cls-18" x1="145.74" y1="39.08" x2="152.85" y2="39.08"/><line class="cls-19" x1="152.8" y1="35.48" x2="159.91" y2="35.48"/><line class="cls-19" x1="138.72" y1="35.48" x2="145.83" y2="35.48"/><line class="cls-19" x1="152.85" y1="39.08" x2="162.14" y2="39.08"/><line class="cls-19" x1="141.1" y1="39.08" x2="145.95" y2="39.08"/><line class="cls-17" x1="145.85" y1="48.43" x2="152.96" y2="48.43"/><line class="cls-17" x1="145.57" y1="52.04" x2="152.68" y2="52.04"/><line class="cls-20" x1="152.89" y1="48.43" x2="157.83" y2="48.43"/><line class="cls-20" x1="152.89" y1="52.04" x2="159.68" y2="52.04"/><line class="cls-20" x1="138.64" y1="52.04" x2="145.57" y2="52.04"/><line class="cls-20" x1="136.49" y1="48.43" x2="145.78" y2="48.43"/><text class="cls-11" transform="translate(160.28 71.78)">Input: Exon defintions from annotation</text><rect class="cls-23" x="179.11" y="86.67" width="9.42" height="4.73"/><rect class="cls-23" x="218.9" y="86.67" width="9.42" height="4.73"/><rect class="cls-23" x="218.9" y="96.14" width="18.16" height="4.73"/><rect class="cls-23" x="173.13" y="96.14" width="15.41" height="4.73"/><rect class="cls-23" x="198.51" y="86.67" width="9.42" height="4.73"/><rect class="cls-24" x="246.88" y="86.67" width="9.42" height="4.73"/><rect class="cls-24" x="296.19" y="86.67" width="9.42" height="4.73"/><rect class="cls-24" x="313.48" y="86.67" width="9.42" height="4.73"/><rect class="cls-24" x="246.87" y="96.14" width="9.43" height="4.73"/><rect class="cls-24" x="263.2" y="96.14" width="9.43" height="4.73"/><rect class="cls-24" x="296.47" y="96.14" width="9.42" height="4.73"/><text class="cls-25" transform="translate(191.61 81.66)">Gene A</text><text class="cls-26" transform="translate(257.77 81.66)">Gene B</text><rect class="cls-24" x="313.48" y="96.14" width="9.42" height="4.73"/><rect class="cls-12" x="157.5" y="61.68" width="174.02" height="42.05"/><line class="cls-27" x1="169.15" y1="34.44" x2="217.7" y2="34.44"/><polygon class="cls-28" points="216.29 36.29 217.08 34.44 216.29 32.59 220.68 34.44 216.29 36.29"/><line class="cls-27" x1="277.68" y1="34.44" x2="325.38" y2="34.44"/><polygon class="cls-28" points="323.97 36.29 324.76 34.44 323.97 32.59 328.36 34.44 323.97 36.29"/><text class="cls-29" transform="translate(274.2 31.58)">Find alternative exons</text><rect class="cls-30" x="56.87" y="336.9" width="9.42" height="4.73"/><polyline class="cls-31" points="66.29 341.13 66.29 341.63 65.79 341.63"/><line class="cls-32" x1="64.85" y1="341.63" x2="57.83" y2="341.63"/><polyline class="cls-31" points="57.37 341.63 56.87 341.63 56.87 341.13"/><line class="cls-33" x1="56.87" y1="339.88" x2="56.87" y2="338.02"/><polyline class="cls-31" points="56.87 337.4 56.87 336.9 57.37 336.9"/><line class="cls-32" x1="58.3" y1="336.9" x2="65.32" y2="336.9"/><polyline class="cls-31" points="65.79 336.9 66.29 336.9 66.29 337.4"/><line class="cls-33" x1="66.29" y1="338.64" x2="66.29" y2="340.51"/><rect class="cls-23" x="56.87" y="327" width="9.43" height="4.73"/><rect class="cls-24" x="56.87" y="317.11" width="9.42" height="4.73"/><text class="cls-34" transform="translate(70.85 327.02)">Annotated exons</text><text class="cls-34" transform="translate(70.85 341.63)">Novel exon</text><line class="cls-31" x1="69.43" y1="317.11" x2="69.43" y2="331.4"/><polyline class="cls-31" points="63.49 349.27 61.58 348.14 58.14 350.15"/><polygon class="cls-28" points="65.01 350.18 63.39 348.03 63.38 349.21 62.36 349.78 65.01 350.18"/><text class="cls-34" transform="translate(70.85 352.18)">Junction edge</text><text class="cls-34" transform="translate(76.68 314.64)">Exon-exon junction read</text><line class="cls-35" x1="58.01" y1="311.07" x2="65.12" y2="311.07"/><line class="cls-27" x1="65.06" y1="311.08" x2="72.17" y2="311.08"/><line class="cls-27" x1="50.98" y1="311.08" x2="58.09" y2="311.08"/><text class="cls-36" transform="translate(13.6 331.4)">Legend</text><text class="cls-8" transform="translate(197.41 151.31)">Remove alternative exons with<tspan x="0" y="9.6">non-canonical intron motifs</tspan></text><line class="cls-27" x1="173.98" y1="153.98" x2="186.65" y2="153.98"/><polygon class="cls-28" points="185.24 155.83 186.03 153.98 185.24 152.13 189.63 153.98 185.24 155.83"/><line class="cls-27" x1="314.12" y1="153.98" x2="326.79" y2="153.98"/><polygon class="cls-28" points="325.39 155.83 326.17 153.98 325.39 152.13 329.78 153.98 325.39 155.83"/><text class="cls-11" transform="translate(5.44 214.03)">Input: Junction reads from data</text><rect class="cls-12" x="3.97" y="204.77" width="161.78" height="42.05"/><text class="cls-13" transform="translate(6.3 224.75)">Cell 1<tspan class="cls-14"><tspan x="0" y="9.6">Cell 2</tspan></tspan></text><circle class="cls-37" cx="32.52" cy="231.77" r="3.14"/><circle class="cls-38" cx="32.52" cy="221.89" r="3.14"/><line class="cls-17" x1="92.9" y1="219.33" x2="100.01" y2="219.33"/><line class="cls-18" x1="126.18" y1="219.33" x2="133.29" y2="219.33"/><line class="cls-17" x1="92.62" y1="222.93" x2="99.73" y2="222.93"/><line class="cls-18" x1="92.92" y1="230.05" x2="116.16" y2="230.05"/><line class="cls-18" x1="92.97" y1="226.54" x2="116.21" y2="226.54"/><line class="cls-18" x1="126.18" y1="222.93" x2="133.29" y2="222.93"/><line class="cls-17" x1="111.15" y1="237.36" x2="134.39" y2="237.36"/><line class="cls-17" x1="111.23" y1="233.76" x2="134.47" y2="233.76"/><line class="cls-19" x1="133.23" y1="219.34" x2="140.34" y2="219.34"/><line class="cls-19" x1="119.16" y1="219.34" x2="126.26" y2="219.34"/><line class="cls-19" x1="133.28" y1="222.93" x2="142.58" y2="222.93"/><line class="cls-19" x1="121.53" y1="222.93" x2="126.39" y2="222.93"/><line class="cls-20" x1="134.55" y1="233.76" x2="143.84" y2="233.76"/><line class="cls-20" x1="134.39" y1="237.36" x2="141.4" y2="237.36"/><line class="cls-20" x1="106.7" y1="233.76" x2="111.24" y2="233.76"/><line class="cls-20" x1="104.06" y1="237.36" x2="111.15" y2="237.36"/><line class="cls-20" x1="99.94" y1="219.33" x2="104.88" y2="219.33"/><line class="cls-20" x1="99.94" y1="222.93" x2="106.73" y2="222.93"/><line class="cls-20" x1="85.69" y1="222.93" x2="92.62" y2="222.93"/><line class="cls-20" x1="83.54" y1="219.33" x2="92.83" y2="219.33"/><line class="cls-19" x1="92.93" y1="226.54" x2="85.82" y2="226.54"/><line class="cls-19" x1="92.83" y1="230.05" x2="83.54" y2="230.05"/><line class="cls-19" x1="116.1" y1="226.54" x2="123.2" y2="226.54"/><line class="cls-19" x1="116.1" y1="230.05" x2="120.95" y2="230.05"/><line class="cls-21" x1="48.54" y1="223.05" x2="55.65" y2="223.05"/><line class="cls-20" x1="62.68" y1="223.05" x2="55.68" y2="223.05"/><line class="cls-20" x1="48.64" y1="223.05" x2="41.64" y2="223.05"/><line class="cls-17" x1="64.67" y1="219.45" x2="71.78" y2="219.45"/><line class="cls-20" x1="64.66" y1="219.45" x2="57.66" y2="219.45"/><line class="cls-20" x1="78.7" y1="219.45" x2="71.7" y2="219.45"/><line class="cls-22" x1="48.53" y1="226.65" x2="71.77" y2="226.65"/><line class="cls-22" x1="48.53" y1="230.21" x2="71.77" y2="230.21"/><line class="cls-19" x1="48.63" y1="226.65" x2="39.55" y2="226.65"/><line class="cls-19" x1="76.23" y1="226.65" x2="71.69" y2="226.65"/><line class="cls-19" x1="80.77" y1="230.21" x2="71.69" y2="230.21"/><line class="cls-19" x1="48.63" y1="230.21" x2="44.09" y2="230.21"/><line class="cls-21" x1="48.98" y1="233.81" x2="72.22" y2="233.81"/><line class="cls-21" x1="48.98" y1="237.37" x2="72.22" y2="237.37"/><line class="cls-20" x1="49.08" y1="233.81" x2="39.99" y2="233.81"/><line class="cls-20" x1="76.68" y1="233.81" x2="72.13" y2="233.81"/><line class="cls-20" x1="81.22" y1="237.37" x2="72.13" y2="237.37"/><line class="cls-20" x1="49.08" y1="237.37" x2="44.53" y2="237.37"/><line class="cls-18" x1="145.74" y1="226.83" x2="152.85" y2="226.83"/><line class="cls-18" x1="145.74" y1="230.43" x2="152.85" y2="230.43"/><line class="cls-19" x1="152.8" y1="226.84" x2="159.91" y2="226.84"/><line class="cls-19" x1="138.72" y1="226.84" x2="145.83" y2="226.84"/><line class="cls-19" x1="152.85" y1="230.43" x2="162.14" y2="230.43"/><line class="cls-19" x1="141.1" y1="230.43" x2="145.95" y2="230.43"/><line class="cls-17" x1="145.85" y1="239.79" x2="152.96" y2="239.79"/><line class="cls-17" x1="145.57" y1="243.4" x2="152.68" y2="243.4"/><line class="cls-20" x1="152.89" y1="239.79" x2="157.83" y2="239.79"/><line class="cls-20" x1="152.89" y1="243.4" x2="159.68" y2="243.4"/><line class="cls-20" x1="138.64" y1="243.4" x2="145.57" y2="243.4"/><line class="cls-20" x1="136.49" y1="239.79" x2="145.78" y2="239.79"/><rect class="cls-12" x="3.97" y="252.06" width="161.78" height="42.05"/><line class="cls-39" x1="114.46" y1="271.03" x2="120.11" y2="271.03"/><text class="cls-40" transform="translate(120.94 274.31)">Inclusion<tspan class="cls-41"><tspan x="0" y="9.6">Exclusion</tspan></tspan></text><line class="cls-42" x1="114.46" y1="281.3" x2="120.11" y2="281.3"/><rect class="cls-23" x="25.6" y="276.28" width="9.43" height="4.73"/><polyline class="cls-43" points="24.11 275.33 22.16 274.1 18.73 276.28"/><polygon class="cls-44" points="25.6 276.28 24.04 274.09 24 275.26 22.95 275.8 25.6 276.28"/><polyline class="cls-43" points="40.4 275.33 38.46 274.1 35.02 276.28"/><polygon class="cls-44" points="41.89 276.28 40.34 274.09 40.29 275.26 39.25 275.8 41.89 276.28"/><polyline class="cls-45" points="40.17 281.67 30.31 284.01 18.73 281.26"/><polygon class="cls-41" points="41.89 281.26 39.24 280.85 40.05 281.7 39.71 282.82 41.89 281.26"/><text class="cls-8" transform="translate(28.31 275.19)">2</text><rect class="cls-30" x="82.71" y="276.39" width="9.43" height="4.73"/><polyline class="cls-31" points="92.14 280.62 92.14 281.12 91.64 281.12"/><line class="cls-46" x1="90.7" y1="281.12" x2="83.68" y2="281.12"/><polyline class="cls-31" points="83.21 281.12 82.71 281.12 82.71 280.62"/><line class="cls-47" x1="82.71" y1="279.38" x2="82.71" y2="277.51"/><polyline class="cls-31" points="82.71 276.89 82.71 276.39 83.21 276.39"/><line class="cls-46" x1="84.15" y1="276.39" x2="91.17" y2="276.39"/><polyline class="cls-31" points="91.64 276.39 92.14 276.39 92.14 276.89"/><line class="cls-47" x1="92.14" y1="278.13" x2="92.14" y2="280"/><rect class="cls-24" x="66.16" y="276.39" width="9.43" height="4.73"/><polyline class="cls-45" points="81.02 281.33 70.87 284.21 59.25 280.85"/><polygon class="cls-41" points="82.72 280.85 80.05 280.55 80.89 281.37 80.6 282.51 82.72 280.85"/><polyline class="cls-45" points="97.86 282.07 95.64 284.21 92.14 280.85"/><polygon class="cls-41" points="99.14 280.85 96.64 281.84 97.77 282.17 98.05 283.31 99.14 280.85"/><polyline class="cls-43" points="59.25 276.17 62.71 273.08 64.84 274.99"/><polygon class="cls-44" points="66.16 276.17 63.63 275.27 64.75 274.9 64.98 273.75 66.16 276.17"/><polyline class="cls-43" points="97.5 275.72 87.49 273.08 75.65 276.17"/><polygon class="cls-44" points="99.2 276.17 97.06 274.55 97.37 275.68 96.54 276.51 99.2 276.17"/><text class="cls-8" transform="translate(68.69 274.83)">2</text><text class="cls-8" transform="translate(85.31 288.19)">3</text><text class="cls-11" transform="translate(14.54 265.18)">Input:<tspan class="cls-48" x="25.02" y="0"> </tspan><tspan x="27.25" y="0">Alternative exons</tspan></text><rect class="cls-12" x="337.67" y="204.77" width="161.78" height="89.33"/><text class="cls-49" transform="translate(438.02 242.73)">inclusion <tspan class="cls-28" x="25.01" y="0">reads</tspan><tspan x="-15.93" y="7.2">inclusion</tspan><tspan class="cls-28" x="7.42" y="7.2" xml:space="preserve"> + </tspan><tspan class="cls-41" x="14.26" y="7.2">exclusion</tspan><tspan class="cls-28" x="39.27" y="7.2" xml:space="preserve"> reads</tspan></text><line class="cls-27" x1="421.58" y1="244.46" x2="494.7" y2="244.46"/><text class="cls-49" transform="translate(366.08 242.57)">inclusion <tspan class="cls-28" x="25.01" y="0">reads</tspan><tspan class="cls-50"><tspan class="cls-5" x="5.34" y="7.2">total</tspan><tspan class="cls-5" x="18.01" y="7.2"> </tspan><tspan class="cls-51" x="19.67" y="7.2">reads</tspan></tspan></text><line class="cls-27" x1="365.12" y1="244.31" x2="407.06" y2="244.31"/><g class="cls-52"><text class="cls-53" transform="translate(342.86 247.16)">Ψ</text><text class="cls-53" transform="translate(353.37 247.16)">=</text></g><g class="cls-54"><text class="cls-53" transform="translate(410.51 247.16)">=</text></g><rect class="cls-24" x="410.18" y="270.8" width="9.43" height="6.97"/><polyline class="cls-39" points="410.08 270.32 406.65 268.14 403.22 270.32"/><polyline class="cls-39" points="426.38 270.32 422.94 268.14 419.51 270.32"/><polyline class="cls-42" points="426.47 278.09 414.88 280.84 403.31 278.09"/><polygon class="cls-55" points="403.31 270.67 398.32 270.67 393.88 278.09 403.31 278.09 403.31 270.67"/><polygon class="cls-55" points="426.47 278.22 431.46 278.22 435.89 270.8 426.47 270.8 426.47 278.22"/><text class="cls-11" transform="translate(408.22 266.99)">SE</text><text class="cls-40" transform="translate(342.53 270.66)">Inclusion reads</text><text class="cls-56" transform="translate(339.87 284.65)">Exclusion reads</text><rect class="cls-24" x="471.45" y="271.17" width="9.43" height="7.69"/><rect class="cls-24" x="454.9" y="271.17" width="9.42" height="7.69"/><polyline class="cls-42" points="471.45 278.91 459.61 282.27 447.98 278.91"/><polyline class="cls-42" points="487.87 278.91 484.37 282.27 480.87 278.91"/><polyline class="cls-39" points="447.98 271.23 451.44 268.14 454.89 271.23"/><polyline class="cls-39" points="487.94 271.23 476.23 268.14 464.38 271.23"/><polygon class="cls-55" points="447.88 271.3 442.89 271.3 438.45 278.73 447.88 278.73 447.88 271.3"/><polygon class="cls-55" points="487.83 278.73 492.82 278.73 497.26 271.3 487.83 271.3 487.83 278.73"/><text class="cls-11" transform="translate(457.02 266.84)">MXE</text><text class="cls-11" transform="translate(342.41 217.33)">Output: Percent spliced-in (Psi/Ψ) <tspan x="0" y="12">for each cell and alternative exon</tspan></text><line class="cls-27" x1="304.42" y1="249.44" x2="317.1" y2="249.44"/><polygon class="cls-28" points="315.69 251.29 316.48 249.44 315.69 247.59 320.08 249.44 315.69 251.29"/><rect class="cls-12" x="337.67" y="13.42" width="161.78" height="42.05"/><line class="cls-39" x1="448.17" y1="32.39" x2="453.81" y2="32.39"/><text class="cls-40" transform="translate(454.64 35.67)">Inclusion<tspan class="cls-41"><tspan x="0" y="9.6">Exclusion</tspan></tspan></text><line class="cls-42" x1="448.17" y1="42.67" x2="453.81" y2="42.67"/><rect class="cls-23" x="359.3" y="37.64" width="9.43" height="4.73"/><polyline class="cls-43" points="357.81 36.69 355.87 35.46 352.43 37.64"/><polygon class="cls-44" points="359.3 37.64 357.75 35.45 357.7 36.62 356.66 37.16 359.3 37.64"/><polyline class="cls-43" points="374.11 36.69 372.16 35.46 368.73 37.64"/><polygon class="cls-44" points="375.6 37.64 374.04 35.45 374 36.62 372.95 37.16 375.6 37.64"/><polyline class="cls-45" points="373.88 43.03 364.01 45.38 352.43 42.62"/><polygon class="cls-41" points="375.6 42.62 372.94 42.21 373.75 43.06 373.41 44.19 375.6 42.62"/><text class="cls-8" transform="translate(362.01 36.55)">2</text><rect class="cls-30" x="416.42" y="37.75" width="9.43" height="4.73"/><polyline class="cls-31" points="425.84 41.98 425.84 42.48 425.34 42.48"/><line class="cls-46" x1="424.41" y1="42.48" x2="417.38" y2="42.48"/><polyline class="cls-31" points="416.92 42.48 416.42 42.48 416.42 41.98"/><line class="cls-47" x1="416.42" y1="40.74" x2="416.42" y2="38.87"/><polyline class="cls-31" points="416.42 38.25 416.42 37.75 416.92 37.75"/><line class="cls-46" x1="417.85" y1="37.75" x2="424.87" y2="37.75"/><polyline class="cls-31" points="425.34 37.75 425.84 37.75 425.84 38.25"/><line class="cls-47" x1="425.84" y1="39.5" x2="425.84" y2="41.36"/><rect class="cls-24" x="399.86" y="37.75" width="9.43" height="4.73"/><polyline class="cls-45" points="414.72 42.69 404.58 45.57 392.96 42.21"/><polygon class="cls-41" points="416.42 42.21 413.75 41.91 414.59 42.73 414.3 43.87 416.42 42.21"/><polyline class="cls-45" points="431.57 43.44 429.34 45.57 425.84 42.21"/><polygon class="cls-41" points="432.84 42.21 430.34 43.2 431.47 43.53 431.75 44.67 432.84 42.21"/><polyline class="cls-43" points="392.96 37.53 396.41 34.44 398.55 36.35"/><polygon class="cls-44" points="399.86 37.53 397.33 36.63 398.45 36.26 398.69 35.11 399.86 37.53"/><polyline class="cls-43" points="431.2 37.08 421.2 34.44 409.36 37.53"/><polygon class="cls-44" points="432.91 37.53 430.76 35.91 431.07 37.04 430.24 37.88 432.91 37.53"/><text class="cls-8" transform="translate(402.39 36.2)">2</text><text class="cls-8" transform="translate(419.02 49.55)">3</text><text class="cls-11" transform="translate(348.24 26.54)">Output:<tspan class="cls-48" x="32.8" y="0"> </tspan><tspan x="35.02" y="0">Alternative exons</tspan></text><rect class="cls-12" x="337.67" y="132.95" width="161.78" height="42.05"/><line class="cls-39" x1="448.17" y1="151.93" x2="453.81" y2="151.93"/><text class="cls-40" transform="translate(454.64 155.21)">Inclusion<tspan class="cls-41"><tspan x="0" y="9.6">Exclusion</tspan></tspan></text><line class="cls-42" x1="448.17" y1="162.2" x2="453.81" y2="162.2"/><rect class="cls-23" x="359.3" y="157.17" width="9.43" height="4.73"/><polyline class="cls-43" points="357.81 156.23 355.87 154.99 352.43 157.17"/><polygon class="cls-44" points="359.3 157.17 357.75 154.98 357.7 156.16 356.66 156.7 359.3 157.17"/><polyline class="cls-43" points="374.11 156.23 372.16 154.99 368.73 157.17"/><polygon class="cls-44" points="375.6 157.17 374.04 154.98 374 156.16 372.95 156.7 375.6 157.17"/><polyline class="cls-45" points="373.88 162.56 364.01 164.91 352.43 162.16"/><polygon class="cls-41" points="375.6 162.16 372.94 161.74 373.75 162.59 373.41 163.72 375.6 162.16"/><text class="cls-8" transform="translate(362.01 156.08)">2</text><rect class="cls-30" x="416.42" y="157.29" width="9.43" height="4.73"/><polyline class="cls-31" points="425.84 161.52 425.84 162.02 425.34 162.02"/><line class="cls-46" x1="424.41" y1="162.02" x2="417.38" y2="162.02"/><polyline class="cls-31" points="416.92 162.02 416.42 162.02 416.42 161.52"/><line class="cls-47" x1="416.42" y1="160.27" x2="416.42" y2="158.41"/><polyline class="cls-31" points="416.42 157.79 416.42 157.29 416.92 157.29"/><line class="cls-46" x1="417.85" y1="157.29" x2="424.87" y2="157.29"/><polyline class="cls-31" points="425.34 157.29 425.84 157.29 425.84 157.79"/><line class="cls-47" x1="425.84" y1="159.03" x2="425.84" y2="160.9"/><rect class="cls-24" x="399.86" y="157.29" width="9.43" height="4.73"/><polyline class="cls-45" points="414.72 162.23 404.58 165.11 392.96 161.75"/><polygon class="cls-41" points="416.42 161.75 413.75 161.45 414.59 162.26 414.3 163.4 416.42 161.75"/><polyline class="cls-45" points="431.57 162.97 429.34 165.11 425.84 161.75"/><polygon class="cls-41" points="432.84 161.75 430.34 162.74 431.47 163.06 431.75 164.2 432.84 161.75"/><polyline class="cls-43" points="392.96 157.06 396.41 153.97 398.55 155.89"/><polygon class="cls-44" points="399.86 157.06 397.33 156.16 398.45 155.8 398.69 154.65 399.86 157.06"/><polyline class="cls-43" points="431.2 156.61 421.2 153.97 409.36 157.06"/><polygon class="cls-44" points="432.91 157.06 430.76 155.45 431.07 156.58 430.24 157.41 432.91 157.06"/><text class="cls-8" transform="translate(402.39 155.73)">2</text><text class="cls-8" transform="translate(419.02 169.08)">3</text><text class="cls-11" transform="translate(348.24 146.07)">Output: <tspan class="cls-57" x="35.58" y="0">V</tspan><tspan class="cls-10" x="41.88" y="0">alid </tspan><tspan x="60.22" y="0">alternative exons</tspan></text><rect class="cls-12" x="4.43" y="132.95" width="161.78" height="42.05"/><line class="cls-39" x1="114.92" y1="151.93" x2="120.56" y2="151.93"/><text class="cls-40" transform="translate(121.39 155.21)">Inclusion<tspan class="cls-41"><tspan x="0" y="9.6">Exclusion</tspan></tspan></text><line class="cls-42" x1="114.92" y1="162.2" x2="120.56" y2="162.2"/><rect class="cls-23" x="26.05" y="157.17" width="9.43" height="4.73"/><polyline class="cls-43" points="24.56 156.23 22.62 154.99 19.19 157.17"/><polygon class="cls-44" points="26.05 157.17 24.5 154.98 24.45 156.16 23.41 156.7 26.05 157.17"/><polyline class="cls-43" points="40.86 156.23 38.91 154.99 35.48 157.17"/><polygon class="cls-44" points="42.35 157.17 40.79 154.98 40.75 156.16 39.7 156.7 42.35 157.17"/><polyline class="cls-45" points="40.63 162.56 30.77 164.91 19.18 162.16"/><polygon class="cls-41" points="42.35 162.16 39.69 161.74 40.5 162.59 40.16 163.72 42.35 162.16"/><text class="cls-8" transform="translate(28.77 156.08)">2</text><rect class="cls-30" x="83.17" y="157.29" width="9.43" height="4.73"/><polyline class="cls-31" points="92.59 161.52 92.59 162.02 92.09 162.02"/><line class="cls-46" x1="91.16" y1="162.02" x2="84.14" y2="162.02"/><polyline class="cls-31" points="83.67 162.02 83.17 162.02 83.17 161.52"/><line class="cls-47" x1="83.17" y1="160.27" x2="83.17" y2="158.41"/><polyline class="cls-31" points="83.17 157.79 83.17 157.29 83.67 157.29"/><line class="cls-46" x1="84.6" y1="157.29" x2="91.63" y2="157.29"/><polyline class="cls-31" points="92.09 157.29 92.59 157.29 92.59 157.79"/><line class="cls-47" x1="92.59" y1="159.03" x2="92.59" y2="160.9"/><rect class="cls-24" x="66.61" y="157.29" width="9.43" height="4.73"/><polyline class="cls-45" points="81.47 162.23 71.33 165.11 59.71 161.75"/><polygon class="cls-41" points="83.17 161.75 80.5 161.45 81.34 162.26 81.06 163.4 83.17 161.75"/><polyline class="cls-45" points="98.32 162.97 96.09 165.11 92.6 161.75"/><polygon class="cls-41" points="99.59 161.75 97.09 162.74 98.22 163.06 98.5 164.2 99.59 161.75"/><polyline class="cls-43" points="59.71 157.06 63.16 153.97 65.3 155.89"/><polygon class="cls-44" points="66.61 157.06 64.08 156.16 65.2 155.8 65.44 154.65 66.61 157.06"/><polyline class="cls-43" points="97.95 156.61 87.95 153.97 76.11 157.06"/><polygon class="cls-44" points="99.66 157.06 97.51 155.45 97.82 156.58 96.99 157.41 99.66 157.06"/><text class="cls-8" transform="translate(69.14 155.73)">2</text><text class="cls-8" transform="translate(85.77 169.08)">3</text><text class="cls-11" transform="translate(15 146.07)">Input:<tspan class="cls-48" x="25.02" y="0"> </tspan><tspan x="27.25" y="0">Alternative exons</tspan></text><path class="cls-27" d="M313.68,34.47c-34.67,0-34.67,21-34.67,21"/><line class="cls-27" x1="177.15" y1="268.49" x2="189.11" y2="264.31"/><polygon class="cls-28" points="188.4 266.52 188.53 264.52 187.18 263.03 191.93 263.33 188.4 266.52"/><line class="cls-27" x1="177.15" y1="230.39" x2="189.11" y2="234.57"/><polygon class="cls-28" points="187.18 235.85 188.53 234.36 188.4 232.36 191.93 235.55 187.18 235.85"/><text class="cls-29" transform="translate(167.68 23.49)">Filter junctions with <tspan x="0" y="7.2">insu</tspan><tspan class="cls-9" x="11.01" y="7.2">f</tspan><tspan x="12.57" y="7.2">ficient coverage</tspan></text></svg>