<svg id="Layer_1" data-name="Layer 1" xmlns="http://www.w3.org/2000/svg" xmlns:xlink="http://www.w3.org/1999/xlink" viewBox="0 0 499.58 357.45"><defs><style>.cls-1,.cls-12,.cls-17,.cls-18,.cls-19,.cls-20,.cls-27,.cls-30,.cls-31,.cls-32,.cls-34,.cls-38,.cls-41,.cls-42,.cls-43,.cls-44,.cls-45{fill:none;}.cls-2,.cls-4{font-size:12px;}.cls-11,.cls-2,.cls-28,.cls-33,.cls-35,.cls-4,.cls-48,.cls-8{fill:#231f20;}.cls-2,.cls-35,.cls-4,.cls-48{font-family:Arial-BoldMT, Arial;}.cls-2,.cls-35,.cls-5,.cls-6{font-weight:700;}.cls-3,.cls-6{font-family:Consolas-Bold, Consolas;}.cls-11,.cls-35,.cls-7{font-size:10px;}.cls-11,.cls-13,.cls-25,.cls-26,.cls-33,.cls-39,.cls-47,.cls-49,.cls-53,.cls-54,.cls-7,.cls-8{font-family:ArialMT, Arial;}.cls-13,.cls-39,.cls-54,.cls-8{font-size:8px;}.cls-9{letter-spacing:-0.02em;}.cls-10,.cls-55{font-family:Arial-ItalicMT, Arial;font-style:italic;}.cls-12,.cls-15,.cls-16,.cls-23,.cls-24,.cls-27,.cls-30,.cls-31,.cls-32,.cls-34,.cls-36,.cls-37,.cls-44,.cls-45{stroke:#231f20;}.cls-12,.cls-15,.cls-16,.cls-17,.cls-18,.cls-19,.cls-20,.cls-21,.cls-22,.cls-23,.cls-24,.cls-27,.cls-30,.cls-31,.cls-32,.cls-34,.cls-36,.cls-37,.cls-38,.cls-41,.cls-42,.cls-43,.cls-44,.cls-45{stroke-miterlimit:10;}.cls-12,.cls-15,.cls-16,.cls-36,.cls-37{stroke-width:0.25px;}.cls-13{fill:#60c3ac;}.cls-14{fill:#7b599c;}.cls-15{fill:url(#radial-gradient);}.cls-16{fill:url(#radial-gradient-2);}.cls-17,.cls-20,.cls-21{stroke:#60c3ac;}.cls-17,.cls-18,.cls-21,.cls-22,.cls-34{stroke-width:0.75px;stroke-dasharray:1;}.cls-18,.cls-19,.cls-22{stroke:#7b599c;}.cls-21,.cls-22{fill:#6d6e71;}.cls-23{fill:#939598;}.cls-23,.cls-24,.cls-30,.cls-31,.cls-32,.cls-42,.cls-43,.cls-44,.cls-45{stroke-width:0.5px;}.cls-24,.cls-26{fill:#414042;}.cls-25,.cls-26,.cls-33,.cls-53{font-size:7px;}.cls-25{fill:#808285;}.cls-29{fill:#fff37a;}.cls-31{stroke-dasharray:0.94 0.94;}.cls-32{stroke-dasharray:1.24 1.24;}.cls-36{fill:url(#radial-gradient-3);}.cls-37{fill:url(#radial-gradient-4);}.cls-38,.cls-42{stroke:#ba131a;}.cls-39,.cls-47{fill:#ba131a;}.cls-40,.cls-54{fill:#4c6ab2;}.cls-41,.cls-43{stroke:#4c6ab2;}.cls-44{stroke-dasharray:0.94 0.94;}.cls-45{stroke-dasharray:1.24 1.24;}.cls-46{letter-spacing:-0.06em;}.cls-47{font-size:6px;}.cls-50{clip-path:url(#clip-path);}.cls-51{font-size:9.96px;font-family:CMR10, CM R 10;}.cls-52{clip-path:url(#clip-path-2);}.cls-53{fill:#fff;}.cls-55{letter-spacing:-0.04em;}</style><radialGradient id="radial-gradient" cx="32.52" cy="43.42" r="3.14" gradientUnits="userSpaceOnUse"><stop offset="0" stop-color="#fff"/><stop offset="1" stop-color="#7b599c"/></radialGradient><radialGradient id="radial-gradient-2" cx="32.52" cy="33.54" r="3.14" gradientUnits="userSpaceOnUse"><stop offset="0" stop-color="#fff"/><stop offset="1" stop-color="#60c3ac"/></radialGradient><radialGradient id="radial-gradient-3" cx="32.52" cy="234.77" r="3.14" xlink:href="#radial-gradient"/><radialGradient id="radial-gradient-4" cx="32.52" cy="224.89" r="3.14" xlink:href="#radial-gradient-2"/><clipPath id="clip-path"><rect class="cls-1" x="342.42" y="242.52" width="18.94" height="7.96"/></clipPath><clipPath id="clip-path-2"><rect class="cls-1" x="410.82" y="245.52" width="7" height="3.96"/></clipPath></defs><title>outrigger_overview</title><text class="cls-2" transform="translate(0 10.29)">1. <tspan class="cls-3" x="13.34" y="0">outrigger index</tspan></text><text class="cls-4" transform="translate(0 130.54)"><tspan class="cls-5">2. </tspan><tspan class="cls-6" x="13.34" y="0">outrigger validate</tspan><tspan class="cls-7" x="132.1" y="0" xml:space="preserve"> (optional)</tspan></text><text class="cls-2" transform="translate(0 202.45)">3. <tspan class="cls-3" x="13.34" y="0">outrigger psi</tspan></text><text class="cls-8" transform="translate(203.34 249.77)">Reject cases with <tspan x="0" y="9.6">insu</tspan><tspan class="cls-9" x="14.68" y="9.6">f</tspan><tspan x="16.75" y="9.6">ficient junction reads</tspan></text><text class="cls-8" transform="translate(224.78 34.78)">Detect exons<tspan class="cls-10"><tspan x="0" y="9.6">de novo</tspan></tspan></text><text class="cls-11" transform="translate(5.44 25.67)">Input: Junction reads from data</text><rect class="cls-12" x="3.97" y="16.42" width="161.78" height="42.05"/><text class="cls-13" transform="translate(6.3 36.4)">Cell 1<tspan class="cls-14"><tspan x="0" y="9.6">Cell 2</tspan></tspan></text><circle class="cls-15" cx="32.52" cy="43.42" r="3.14"/><circle class="cls-16" cx="32.52" cy="33.54" r="3.14"/><line class="cls-17" x1="92.9" y1="30.97" x2="100.01" y2="30.97"/><line class="cls-18" x1="126.18" y1="30.97" x2="133.29" y2="30.97"/><line class="cls-17" x1="92.62" y1="34.58" x2="99.73" y2="34.58"/><line class="cls-18" x1="92.92" y1="41.69" x2="116.16" y2="41.69"/><line class="cls-18" x1="92.97" y1="38.18" x2="116.21" y2="38.18"/><line class="cls-18" x1="126.18" y1="34.58" x2="133.29" y2="34.58"/><line class="cls-17" x1="111.15" y1="49.01" x2="134.39" y2="49.01"/><line class="cls-17" x1="111.23" y1="45.4" x2="134.47" y2="45.4"/><line class="cls-19" x1="133.23" y1="30.98" x2="140.34" y2="30.98"/><line class="cls-19" x1="119.16" y1="30.98" x2="126.26" y2="30.98"/><line class="cls-19" x1="133.28" y1="34.58" x2="142.58" y2="34.58"/><line class="cls-19" x1="121.53" y1="34.58" x2="126.39" y2="34.58"/><line class="cls-20" x1="134.55" y1="45.4" x2="143.84" y2="45.4"/><line class="cls-20" x1="134.39" y1="49.01" x2="141.4" y2="49.01"/><line class="cls-20" x1="106.7" y1="45.4" x2="111.24" y2="45.4"/><line class="cls-20" x1="104.06" y1="49.01" x2="111.15" y2="49.01"/><line class="cls-20" x1="99.94" y1="30.97" x2="104.88" y2="30.97"/><line class="cls-20" x1="99.94" y1="34.58" x2="106.73" y2="34.58"/><line class="cls-20" x1="85.69" y1="34.58" x2="92.62" y2="34.58"/><line class="cls-20" x1="83.54" y1="30.97" x2="92.83" y2="30.97"/><line class="cls-19" x1="92.93" y1="38.18" x2="85.82" y2="38.18"/><line class="cls-19" x1="92.83" y1="41.69" x2="83.54" y2="41.69"/><line class="cls-19" x1="116.1" y1="38.18" x2="123.2" y2="38.18"/><line class="cls-19" x1="116.1" y1="41.69" x2="120.95" y2="41.69"/><line class="cls-21" x1="48.54" y1="34.7" x2="55.65" y2="34.7"/><line class="cls-20" x1="62.68" y1="34.7" x2="55.68" y2="34.7"/><line class="cls-20" x1="48.64" y1="34.7" x2="41.64" y2="34.7"/><line class="cls-17" x1="64.67" y1="31.1" x2="71.78" y2="31.1"/><line class="cls-20" x1="64.66" y1="31.1" x2="57.66" y2="31.1"/><line class="cls-20" x1="78.7" y1="31.1" x2="71.7" y2="31.1"/><line class="cls-22" x1="48.53" y1="38.3" x2="71.77" y2="38.3"/><line class="cls-22" x1="48.53" y1="41.86" x2="71.77" y2="41.86"/><line class="cls-19" x1="48.63" y1="38.3" x2="39.55" y2="38.3"/><line class="cls-19" x1="76.23" y1="38.3" x2="71.69" y2="38.3"/><line class="cls-19" x1="80.77" y1="41.86" x2="71.69" y2="41.86"/><line class="cls-19" x1="48.63" y1="41.86" x2="44.09" y2="41.86"/><line class="cls-21" x1="48.98" y1="45.46" x2="72.22" y2="45.46"/><line class="cls-21" x1="48.98" y1="49.02" x2="72.22" y2="49.02"/><line class="cls-20" x1="49.08" y1="45.46" x2="39.99" y2="45.46"/><line class="cls-20" x1="76.68" y1="45.46" x2="72.13" y2="45.46"/><line class="cls-20" x1="81.22" y1="49.02" x2="72.13" y2="49.02"/><line class="cls-20" x1="49.08" y1="49.02" x2="44.53" y2="49.02"/><line class="cls-18" x1="145.74" y1="38.47" x2="152.85" y2="38.47"/><line class="cls-18" x1="145.74" y1="42.08" x2="152.85" y2="42.08"/><line class="cls-19" x1="152.8" y1="38.48" x2="159.91" y2="38.48"/><line class="cls-19" x1="138.72" y1="38.48" x2="145.83" y2="38.48"/><line class="cls-19" x1="152.85" y1="42.08" x2="162.14" y2="42.08"/><line class="cls-19" x1="141.1" y1="42.08" x2="145.95" y2="42.08"/><line class="cls-17" x1="145.85" y1="51.43" x2="152.96" y2="51.43"/><line class="cls-17" x1="145.57" y1="55.04" x2="152.68" y2="55.04"/><line class="cls-20" x1="152.89" y1="51.43" x2="157.83" y2="51.43"/><line class="cls-20" x1="152.89" y1="55.04" x2="159.68" y2="55.04"/><line class="cls-20" x1="138.64" y1="55.04" x2="145.57" y2="55.04"/><line class="cls-20" x1="136.49" y1="51.43" x2="145.78" y2="51.43"/><text class="cls-11" transform="translate(159.17 74.78)">Input: Exon definitions from annotation</text><rect class="cls-23" x="179.11" y="89.67" width="9.42" height="4.73"/><rect class="cls-23" x="218.9" y="89.67" width="9.42" height="4.73"/><rect class="cls-23" x="218.9" y="99.14" width="18.16" height="4.73"/><rect class="cls-23" x="173.13" y="99.14" width="15.41" height="4.73"/><rect class="cls-23" x="198.51" y="89.67" width="9.42" height="4.73"/><rect class="cls-24" x="246.88" y="89.67" width="9.42" height="4.73"/><rect class="cls-24" x="296.19" y="89.67" width="9.42" height="4.73"/><rect class="cls-24" x="313.48" y="89.67" width="9.42" height="4.73"/><rect class="cls-24" x="246.87" y="99.14" width="9.43" height="4.73"/><rect class="cls-24" x="263.2" y="99.14" width="9.43" height="4.73"/><rect class="cls-24" x="296.47" y="99.14" width="9.42" height="4.73"/><text class="cls-25" transform="translate(191.61 84.66)">Gene A</text><text class="cls-26" transform="translate(257.77 84.66)">Gene B</text><rect class="cls-24" x="313.48" y="99.14" width="9.42" height="4.73"/><rect class="cls-12" x="157.5" y="64.68" width="174.02" height="42.05"/><line class="cls-27" x1="169.15" y1="37.44" x2="217.7" y2="37.44"/><polygon class="cls-28" points="216.29 39.29 217.08 37.44 216.29 35.59 220.68 37.44 216.29 39.29"/><line class="cls-27" x1="277.68" y1="37.44" x2="325.38" y2="37.44"/><polygon class="cls-28" points="323.97 39.29 324.76 37.44 323.97 35.59 328.36 37.44 323.97 39.29"/><rect class="cls-29" x="56.87" y="339.9" width="9.42" height="4.73"/><polyline class="cls-30" points="66.29 344.13 66.29 344.63 65.79 344.63"/><line class="cls-31" x1="64.85" y1="344.63" x2="57.83" y2="344.63"/><polyline class="cls-30" points="57.37 344.63 56.87 344.63 56.87 344.13"/><line class="cls-32" x1="56.87" y1="342.88" x2="56.87" y2="341.02"/><polyline class="cls-30" points="56.87 340.4 56.87 339.9 57.37 339.9"/><line class="cls-31" x1="58.3" y1="339.9" x2="65.32" y2="339.9"/><polyline class="cls-30" points="65.79 339.9 66.29 339.9 66.29 340.4"/><line class="cls-32" x1="66.29" y1="341.64" x2="66.29" y2="343.51"/><rect class="cls-23" x="56.87" y="330" width="9.43" height="4.73"/><rect class="cls-24" x="56.87" y="320.11" width="9.42" height="4.73"/><text class="cls-33" transform="translate(70.85 330.02)">Annotated exons</text><text class="cls-33" transform="translate(70.85 344.63)">Novel exon</text><line class="cls-30" x1="69.43" y1="320.11" x2="69.43" y2="334.4"/><polyline class="cls-30" points="65.01 353.18 61.58 351.14 58.14 353.15"/><text class="cls-33" transform="translate(70.85 355.18)">Alternative junction</text><text class="cls-33" transform="translate(76.68 317.64)">Exon-exon junction read</text><line class="cls-34" x1="58.01" y1="314.07" x2="65.12" y2="314.07"/><line class="cls-27" x1="65.06" y1="314.08" x2="72.17" y2="314.08"/><line class="cls-27" x1="50.98" y1="314.08" x2="58.09" y2="314.08"/><text class="cls-35" transform="translate(13.6 334.4)">Legend</text><text class="cls-8" transform="translate(197.41 154.31)">Remove alternative exons with<tspan x="0" y="9.6">non-canonical splice sites</tspan></text><line class="cls-27" x1="173.98" y1="156.98" x2="186.65" y2="156.98"/><polygon class="cls-28" points="185.24 158.83 186.03 156.98 185.24 155.13 189.63 156.98 185.24 158.83"/><line class="cls-27" x1="314.12" y1="156.98" x2="326.79" y2="156.98"/><polygon class="cls-28" points="325.39 158.83 326.17 156.98 325.39 155.13 329.78 156.98 325.39 158.83"/><text class="cls-11" transform="translate(5.44 217.03)">Input: Junction reads from data</text><rect class="cls-12" x="3.97" y="207.77" width="161.78" height="42.05"/><text class="cls-13" transform="translate(6.3 227.75)">Cell 1<tspan class="cls-14"><tspan x="0" y="9.6">Cell 2</tspan></tspan></text><circle class="cls-36" cx="32.52" cy="234.77" r="3.14"/><circle class="cls-37" cx="32.52" cy="224.89" r="3.14"/><line class="cls-17" x1="92.9" y1="222.33" x2="100.01" y2="222.33"/><line class="cls-18" x1="126.18" y1="222.33" x2="133.29" y2="222.33"/><line class="cls-17" x1="92.62" y1="225.93" x2="99.73" y2="225.93"/><line class="cls-18" x1="92.92" y1="233.05" x2="116.16" y2="233.05"/><line class="cls-18" x1="92.97" y1="229.54" x2="116.21" y2="229.54"/><line class="cls-18" x1="126.18" y1="225.93" x2="133.29" y2="225.93"/><line class="cls-17" x1="111.15" y1="240.36" x2="134.39" y2="240.36"/><line class="cls-17" x1="111.23" y1="236.76" x2="134.47" y2="236.76"/><line class="cls-19" x1="133.23" y1="222.34" x2="140.34" y2="222.34"/><line class="cls-19" x1="119.16" y1="222.34" x2="126.26" y2="222.34"/><line class="cls-19" x1="133.28" y1="225.93" x2="142.58" y2="225.93"/><line class="cls-19" x1="121.53" y1="225.93" x2="126.39" y2="225.93"/><line class="cls-20" x1="134.55" y1="236.76" x2="143.84" y2="236.76"/><line class="cls-20" x1="134.39" y1="240.36" x2="141.4" y2="240.36"/><line class="cls-20" x1="106.7" y1="236.76" x2="111.24" y2="236.76"/><line class="cls-20" x1="104.06" y1="240.36" x2="111.15" y2="240.36"/><line class="cls-20" x1="99.94" y1="222.33" x2="104.88" y2="222.33"/><line class="cls-20" x1="99.94" y1="225.93" x2="106.73" y2="225.93"/><line class="cls-20" x1="85.69" y1="225.93" x2="92.62" y2="225.93"/><line class="cls-20" x1="83.54" y1="222.33" x2="92.83" y2="222.33"/><line class="cls-19" x1="92.93" y1="229.54" x2="85.82" y2="229.54"/><line class="cls-19" x1="92.83" y1="233.05" x2="83.54" y2="233.05"/><line class="cls-19" x1="116.1" y1="229.54" x2="123.2" y2="229.54"/><line class="cls-19" x1="116.1" y1="233.05" x2="120.95" y2="233.05"/><line class="cls-21" x1="48.54" y1="226.05" x2="55.65" y2="226.05"/><line class="cls-20" x1="62.68" y1="226.05" x2="55.68" y2="226.05"/><line class="cls-20" x1="48.64" y1="226.05" x2="41.64" y2="226.05"/><line class="cls-17" x1="64.67" y1="222.45" x2="71.78" y2="222.45"/><line class="cls-20" x1="64.66" y1="222.45" x2="57.66" y2="222.45"/><line class="cls-20" x1="78.7" y1="222.45" x2="71.7" y2="222.45"/><line class="cls-22" x1="48.53" y1="229.65" x2="71.77" y2="229.65"/><line class="cls-22" x1="48.53" y1="233.21" x2="71.77" y2="233.21"/><line class="cls-19" x1="48.63" y1="229.65" x2="39.55" y2="229.65"/><line class="cls-19" x1="76.23" y1="229.65" x2="71.69" y2="229.65"/><line class="cls-19" x1="80.77" y1="233.21" x2="71.69" y2="233.21"/><line class="cls-19" x1="48.63" y1="233.21" x2="44.09" y2="233.21"/><line class="cls-21" x1="48.98" y1="236.81" x2="72.22" y2="236.81"/><line class="cls-21" x1="48.98" y1="240.37" x2="72.22" y2="240.37"/><line class="cls-20" x1="49.08" y1="236.81" x2="39.99" y2="236.81"/><line class="cls-20" x1="76.68" y1="236.81" x2="72.13" y2="236.81"/><line class="cls-20" x1="81.22" y1="240.37" x2="72.13" y2="240.37"/><line class="cls-20" x1="49.08" y1="240.37" x2="44.53" y2="240.37"/><line class="cls-18" x1="145.74" y1="229.83" x2="152.85" y2="229.83"/><line class="cls-18" x1="145.74" y1="233.43" x2="152.85" y2="233.43"/><line class="cls-19" x1="152.8" y1="229.84" x2="159.91" y2="229.84"/><line class="cls-19" x1="138.72" y1="229.84" x2="145.83" y2="229.84"/><line class="cls-19" x1="152.85" y1="233.43" x2="162.14" y2="233.43"/><line class="cls-19" x1="141.1" y1="233.43" x2="145.95" y2="233.43"/><line class="cls-17" x1="145.85" y1="242.79" x2="152.96" y2="242.79"/><line class="cls-17" x1="145.57" y1="246.4" x2="152.68" y2="246.4"/><line class="cls-20" x1="152.89" y1="242.79" x2="157.83" y2="242.79"/><line class="cls-20" x1="152.89" y1="246.4" x2="159.68" y2="246.4"/><line class="cls-20" x1="138.64" y1="246.4" x2="145.57" y2="246.4"/><line class="cls-20" x1="136.49" y1="242.79" x2="145.78" y2="242.79"/><rect class="cls-12" x="3.97" y="255.06" width="161.78" height="42.05"/><line class="cls-38" x1="114.46" y1="274.03" x2="120.11" y2="274.03"/><text class="cls-39" transform="translate(120.94 277.31)">Inclusion<tspan class="cls-40"><tspan x="0" y="9.6">Exclusion</tspan></tspan></text><line class="cls-41" x1="114.46" y1="284.3" x2="120.11" y2="284.3"/><rect class="cls-23" x="25.6" y="279.28" width="9.43" height="4.73"/><polyline class="cls-42" points="25.6 279.28 22.16 277.1 18.73 279.28"/><polyline class="cls-42" points="41.89 279.28 38.46 277.1 35.02 279.28"/><polyline class="cls-43" points="41.89 284.26 30.31 287.01 18.73 284.26"/><text class="cls-8" transform="translate(28.31 278.19)">2</text><rect class="cls-29" x="82.71" y="279.39" width="9.43" height="4.73"/><polyline class="cls-30" points="92.14 283.62 92.14 284.12 91.64 284.12"/><line class="cls-44" x1="90.7" y1="284.12" x2="83.68" y2="284.12"/><polyline class="cls-30" points="83.21 284.12 82.71 284.12 82.71 283.62"/><line class="cls-45" x1="82.71" y1="282.38" x2="82.71" y2="280.51"/><polyline class="cls-30" points="82.71 279.89 82.71 279.39 83.21 279.39"/><line class="cls-44" x1="84.15" y1="279.39" x2="91.17" y2="279.39"/><polyline class="cls-30" points="91.64 279.39 92.14 279.39 92.14 279.89"/><line class="cls-45" x1="92.14" y1="281.13" x2="92.14" y2="283"/><rect class="cls-24" x="66.16" y="279.39" width="9.43" height="4.73"/><polyline class="cls-43" points="82.72 283.85 70.87 287.21 59.25 283.85"/><polyline class="cls-43" points="99.14 283.85 95.64 287.21 92.14 283.85"/><polyline class="cls-42" points="59.25 279.17 62.71 276.08 66.16 279.17"/><polyline class="cls-42" points="99.2 279.17 87.49 276.08 75.65 279.17"/><text class="cls-8" transform="translate(68.69 277.83)">2</text><text class="cls-8" transform="translate(85.31 291.19)">3</text><text class="cls-11" transform="translate(14.54 268.18)">Input:<tspan class="cls-46" x="25.02" y="0"> </tspan><tspan x="27.25" y="0">Alternative exons</tspan></text><rect class="cls-12" x="337.67" y="207.77" width="161.78" height="89.33"/><text class="cls-47" transform="translate(438.02 245.73)">inclusion <tspan class="cls-28" x="25.01" y="0">reads</tspan><tspan x="-15.93" y="7.2">inclusion</tspan><tspan class="cls-28" x="7.42" y="7.2" xml:space="preserve"> + </tspan><tspan class="cls-40" x="14.26" y="7.2">exclusion</tspan><tspan class="cls-28" x="39.27" y="7.2" xml:space="preserve"> reads</tspan></text><line class="cls-27" x1="421.58" y1="247.46" x2="494.7" y2="247.46"/><text class="cls-47" transform="translate(366.08 245.57)">inclusion <tspan class="cls-28" x="25.01" y="0">reads</tspan><tspan class="cls-48"><tspan class="cls-5" x="5.34" y="7.2">total</tspan><tspan class="cls-5" x="18.01" y="7.2"> </tspan><tspan class="cls-49" x="19.67" y="7.2">reads</tspan></tspan></text><line class="cls-27" x1="365.12" y1="247.31" x2="407.06" y2="247.31"/><g class="cls-50"><text class="cls-51" transform="translate(342.86 250.16)">Ψ</text><text class="cls-51" transform="translate(353.37 250.16)">=</text></g><g class="cls-52"><text class="cls-51" transform="translate(410.51 250.16)">=</text></g><rect class="cls-24" x="410.18" y="273.8" width="9.43" height="6.97"/><polyline class="cls-38" points="410.08 273.32 406.65 271.14 403.22 273.32"/><polyline class="cls-38" points="426.38 273.32 422.94 271.14 419.51 273.32"/><polyline class="cls-41" points="426.47 281.09 414.88 283.84 403.31 281.09"/><text class="cls-53" transform="translate(413.06 279.77)">2</text><text class="cls-11" transform="translate(408.22 269.99)">SE</text><text class="cls-39" transform="translate(342.53 273.66)">Inclusion reads</text><text class="cls-54" transform="translate(339.87 287.65)">Exclusion reads</text><rect class="cls-24" x="471.45" y="274.17" width="9.43" height="7.69"/><rect class="cls-24" x="454.9" y="274.17" width="9.42" height="7.69"/><polyline class="cls-41" points="471.45 281.91 459.61 285.27 447.98 281.91"/><polyline class="cls-41" points="487.87 281.91 484.37 285.27 480.87 281.91"/><polyline class="cls-38" points="447.98 274.23 451.44 271.14 454.89 274.23"/><polyline class="cls-38" points="487.94 274.23 476.23 271.14 464.38 274.23"/><text class="cls-53" transform="translate(457.79 280.77)">2</text><text class="cls-53" transform="translate(474.29 280.77)">3</text><text class="cls-11" transform="translate(457.02 269.84)">MXE</text><text class="cls-11" transform="translate(342.41 220.33)">Output: Percent spliced-in (Psi/Ψ) <tspan x="0" y="12">for each cell and alternative exon</tspan></text><line class="cls-27" x1="304.42" y1="252.44" x2="317.1" y2="252.44"/><polygon class="cls-28" points="315.69 254.29 316.48 252.44 315.69 250.59 320.08 252.44 315.69 254.29"/><rect class="cls-12" x="337.67" y="16.42" width="161.78" height="42.05"/><line class="cls-38" x1="448.17" y1="35.39" x2="453.81" y2="35.39"/><text class="cls-39" transform="translate(454.64 38.67)">Inclusion<tspan class="cls-40"><tspan x="0" y="9.6">Exclusion</tspan></tspan></text><line class="cls-41" x1="448.17" y1="45.67" x2="453.81" y2="45.67"/><rect class="cls-23" x="359.3" y="40.64" width="9.43" height="4.73"/><polyline class="cls-42" points="359.3 40.64 355.87 38.46 352.43 40.64"/><polyline class="cls-42" points="375.6 40.64 372.16 38.46 368.73 40.64"/><polyline class="cls-43" points="375.6 45.62 364.01 48.38 352.43 45.62"/><text class="cls-8" transform="translate(362.01 39.55)">2</text><rect class="cls-29" x="416.42" y="40.75" width="9.43" height="4.73"/><polyline class="cls-30" points="425.84 44.98 425.84 45.48 425.34 45.48"/><line class="cls-44" x1="424.41" y1="45.48" x2="417.38" y2="45.48"/><polyline class="cls-30" points="416.92 45.48 416.42 45.48 416.42 44.98"/><line class="cls-45" x1="416.42" y1="43.74" x2="416.42" y2="41.87"/><polyline class="cls-30" points="416.42 41.25 416.42 40.75 416.92 40.75"/><line class="cls-44" x1="417.85" y1="40.75" x2="424.87" y2="40.75"/><polyline class="cls-30" points="425.34 40.75 425.84 40.75 425.84 41.25"/><line class="cls-45" x1="425.84" y1="42.5" x2="425.84" y2="44.36"/><rect class="cls-24" x="399.86" y="40.75" width="9.43" height="4.73"/><polyline class="cls-43" points="416.42 45.21 404.58 48.57 392.96 45.21"/><polyline class="cls-43" points="432.84 45.21 429.34 48.57 425.84 45.21"/><polyline class="cls-42" points="392.96 40.53 396.41 37.44 399.86 40.53"/><polyline class="cls-42" points="432.91 40.53 421.2 37.44 409.36 40.53"/><text class="cls-8" transform="translate(402.39 39.2)">2</text><text class="cls-8" transform="translate(419.02 52.55)">3</text><text class="cls-11" transform="translate(348.24 29.54)">Output:<tspan class="cls-46" x="32.8" y="0"> </tspan><tspan x="35.02" y="0">Alternative exons</tspan></text><rect class="cls-12" x="337.67" y="135.95" width="161.78" height="42.05"/><line class="cls-38" x1="448.17" y1="154.93" x2="453.81" y2="154.93"/><text class="cls-39" transform="translate(454.64 158.21)">Inclusion<tspan class="cls-40"><tspan x="0" y="9.6">Exclusion</tspan></tspan></text><line class="cls-41" x1="448.17" y1="165.2" x2="453.81" y2="165.2"/><rect class="cls-23" x="359.3" y="160.17" width="9.43" height="4.73"/><polyline class="cls-42" points="359.3 160.17 355.87 157.99 352.43 160.17"/><polyline class="cls-42" points="375.6 160.17 372.16 157.99 368.73 160.17"/><polyline class="cls-43" points="375.6 165.16 364.01 167.91 352.43 165.16"/><text class="cls-8" transform="translate(362.01 159.08)">2</text><rect class="cls-29" x="416.42" y="160.29" width="9.43" height="4.73"/><polyline class="cls-30" points="425.84 164.52 425.84 165.02 425.34 165.02"/><line class="cls-44" x1="424.41" y1="165.02" x2="417.38" y2="165.02"/><polyline class="cls-30" points="416.92 165.02 416.42 165.02 416.42 164.52"/><line class="cls-45" x1="416.42" y1="163.27" x2="416.42" y2="161.41"/><polyline class="cls-30" points="416.42 160.79 416.42 160.29 416.92 160.29"/><line class="cls-44" x1="417.85" y1="160.29" x2="424.87" y2="160.29"/><polyline class="cls-30" points="425.34 160.29 425.84 160.29 425.84 160.79"/><line class="cls-45" x1="425.84" y1="162.03" x2="425.84" y2="163.9"/><rect class="cls-24" x="399.86" y="160.29" width="9.43" height="4.73"/><polyline class="cls-43" points="416.42 164.75 404.58 168.11 392.96 164.75"/><polyline class="cls-43" points="432.84 164.75 429.34 168.11 425.84 164.75"/><polyline class="cls-42" points="392.96 160.06 396.41 156.97 399.86 160.06"/><polyline class="cls-42" points="432.91 160.06 421.2 156.97 409.36 160.06"/><text class="cls-8" transform="translate(402.39 158.73)">2</text><text class="cls-8" transform="translate(419.02 172.08)">3</text><text class="cls-11" transform="translate(348.24 149.07)">Output: <tspan class="cls-55" x="35.58" y="0">V</tspan><tspan class="cls-10" x="41.88" y="0">alid </tspan><tspan x="60.22" y="0">alternative exons</tspan></text><rect class="cls-12" x="4.43" y="135.95" width="161.78" height="42.05"/><line class="cls-38" x1="114.92" y1="154.93" x2="120.56" y2="154.93"/><text class="cls-39" transform="translate(121.39 158.21)">Inclusion<tspan class="cls-40"><tspan x="0" y="9.6">Exclusion</tspan></tspan></text><line class="cls-41" x1="114.92" y1="165.2" x2="120.56" y2="165.2"/><rect class="cls-23" x="26.05" y="160.17" width="9.43" height="4.73"/><polyline class="cls-42" points="26.05 160.17 22.62 157.99 19.19 160.17"/><polyline class="cls-42" points="42.35 160.17 38.91 157.99 35.48 160.17"/><polyline class="cls-43" points="42.35 165.16 30.77 167.91 19.18 165.16"/><text class="cls-8" transform="translate(28.77 159.08)">2</text><rect class="cls-29" x="83.17" y="160.29" width="9.43" height="4.73"/><polyline class="cls-30" points="92.59 164.52 92.59 165.02 92.09 165.02"/><line class="cls-44" x1="91.16" y1="165.02" x2="84.14" y2="165.02"/><polyline class="cls-30" points="83.67 165.02 83.17 165.02 83.17 164.52"/><line class="cls-45" x1="83.17" y1="163.27" x2="83.17" y2="161.41"/><polyline class="cls-30" points="83.17 160.79 83.17 160.29 83.67 160.29"/><line class="cls-44" x1="84.6" y1="160.29" x2="91.63" y2="160.29"/><polyline class="cls-30" points="92.09 160.29 92.59 160.29 92.59 160.79"/><line class="cls-45" x1="92.59" y1="162.03" x2="92.59" y2="163.9"/><rect class="cls-24" x="66.61" y="160.29" width="9.43" height="4.73"/><polyline class="cls-43" points="83.17 164.75 71.33 168.11 59.71 164.75"/><polyline class="cls-43" points="99.59 164.75 96.09 168.11 92.6 164.75"/><polyline class="cls-42" points="59.71 160.06 63.16 156.97 66.61 160.06"/><polyline class="cls-42" points="99.66 160.06 87.95 156.97 76.11 160.06"/><text class="cls-8" transform="translate(69.14 158.73)">2</text><text class="cls-8" transform="translate(85.77 172.08)">3</text><text class="cls-11" transform="translate(15 149.07)">Input:<tspan class="cls-46" x="25.02" y="0"> </tspan><tspan x="27.25" y="0">Alternative exons</tspan></text><path class="cls-27" d="M313.68,37.47c-34.67,0-34.67,21-34.67,21"/><line class="cls-27" x1="177.15" y1="271.49" x2="189.11" y2="267.31"/><polygon class="cls-28" points="188.4 269.52 188.53 267.52 187.18 266.03 191.93 266.33 188.4 269.52"/><line class="cls-27" x1="177.15" y1="233.39" x2="189.11" y2="237.57"/><polygon class="cls-28" points="187.18 238.85 188.53 237.36 188.4 235.36 191.93 238.55 187.18 238.85"/></svg>